<svg xmlns="http://www.w3.org/2000/svg" viewBox="0 0 640 400" width="640" height="400" role="img" aria-label="econoup schematic chart">
  <rect width="640" height="400" fill="#FBFAF6"/>

  <!-- Engineering graph grid -->
  <g stroke="#0E0F12" stroke-width="0.4" opacity="0.07">
    <line x1="60"  y1="60" x2="60"  y2="340"/>
    <line x1="80"  y1="60" x2="80"  y2="340"/>
    <line x1="100" y1="60" x2="100" y2="340"/>
    <line x1="120" y1="60" x2="120" y2="340"/>
    <line x1="140" y1="60" x2="140" y2="340"/>
    <line x1="160" y1="60" x2="160" y2="340"/>
    <line x1="180" y1="60" x2="180" y2="340"/>
    <line x1="200" y1="60" x2="200" y2="340"/>
    <line x1="220" y1="60" x2="220" y2="340"/>
    <line x1="240" y1="60" x2="240" y2="340"/>
    <line x1="260" y1="60" x2="260" y2="340"/>
    <line x1="280" y1="60" x2="280" y2="340"/>
    <line x1="300" y1="60" x2="300" y2="340"/>
    <line x1="320" y1="60" x2="320" y2="340"/>
    <line x1="340" y1="60" x2="340" y2="340"/>
    <line x1="360" y1="60" x2="360" y2="340"/>
    <line x1="380" y1="60" x2="380" y2="340"/>
    <line x1="400" y1="60" x2="400" y2="340"/>
    <line x1="420" y1="60" x2="420" y2="340"/>
    <line x1="440" y1="60" x2="440" y2="340"/>
    <line x1="460" y1="60" x2="460" y2="340"/>
    <line x1="480" y1="60" x2="480" y2="340"/>
    <line x1="60" y1="80"  x2="480" y2="80"/>
    <line x1="60" y1="100" x2="480" y2="100"/>
    <line x1="60" y1="120" x2="480" y2="120"/>
    <line x1="60" y1="140" x2="480" y2="140"/>
    <line x1="60" y1="160" x2="480" y2="160"/>
    <line x1="60" y1="180" x2="480" y2="180"/>
    <line x1="60" y1="200" x2="480" y2="200"/>
    <line x1="60" y1="220" x2="480" y2="220"/>
    <line x1="60" y1="240" x2="480" y2="240"/>
    <line x1="60" y1="260" x2="480" y2="260"/>
    <line x1="60" y1="280" x2="480" y2="280"/>
    <line x1="60" y1="300" x2="480" y2="300"/>
    <line x1="60" y1="320" x2="480" y2="320"/>
  </g>

  <!-- Top meta -->
  <g font-family="'JetBrains Mono', ui-monospace, monospace" font-size="11" fill="#5B6068" letter-spacing="2">
    <text x="40" y="42">EXP/04 &#8212; ECONOUP* &#183; CHART.001</text>
    <text x="600" y="42" text-anchor="end" fill="#FF2D87">&#9679; IDEATING</text>
  </g>

  <!-- Axes -->
  <g stroke="#0E0F12" stroke-width="1.5" fill="none">
    <line x1="60" y1="60" x2="60" y2="340"/>
    <line x1="60" y1="340" x2="480" y2="340"/>
    <path d="M 56 64 L 60 56 L 64 64" stroke-linecap="round" stroke-linejoin="round"/>
    <path d="M 476 336 L 484 340 L 476 344" stroke-linecap="round" stroke-linejoin="round"/>
  </g>

  <!-- Axis labels (English) -->
  <g font-family="'JetBrains Mono', ui-monospace, monospace" font-size="10" fill="#5B6068" letter-spacing="1">
    <text x="32" y="68" text-anchor="end">KNOWLEDGE</text>
    <text x="484" y="362">DAYS</text>
    <text x="54" y="90"  text-anchor="end" opacity="0.7">100</text>
    <text x="54" y="170" text-anchor="end" opacity="0.7">75</text>
    <text x="54" y="250" text-anchor="end" opacity="0.7">50</text>
    <text x="54" y="330" text-anchor="end" opacity="0.7">25</text>
    <text x="120" y="358" text-anchor="middle" opacity="0.7">7</text>
    <text x="220" y="358" text-anchor="middle" opacity="0.7">14</text>
    <text x="320" y="358" text-anchor="middle" opacity="0.7">21</text>
    <text x="420" y="358" text-anchor="middle" opacity="0.7">28</text>
  </g>

  <!-- Reference line (linear, dashed) -->
  <g stroke="#5B6068" stroke-width="1.2" fill="none" stroke-dasharray="3 5" opacity="0.55">
    <line x1="60" y1="340" x2="480" y2="120"/>
  </g>
  <text x="430" y="138" font-family="'JetBrains Mono', ui-monospace, monospace" font-size="9" fill="#5B6068" letter-spacing="1" opacity="0.8">LINEAR REF</text>

  <!-- Actual curve (compound, signal pink) -->
  <g stroke="#FF2D87" stroke-width="2.6" fill="none" stroke-linecap="round" stroke-linejoin="round">
    <path d="M 60 340 Q 140 340 200 320 Q 260 295 320 240 Q 380 175 480 80"/>
  </g>

  <!-- Data points -->
  <g fill="#FF2D87">
    <circle cx="60"  cy="340" r="3.5"/>
    <circle cx="120" cy="336" r="3.5"/>
    <circle cx="180" cy="324" r="3.5"/>
    <circle cx="240" cy="290" r="3.5"/>
    <circle cx="300" cy="232" r="3.5"/>
    <circle cx="360" cy="170" r="3.5"/>
    <circle cx="420" cy="118" r="3.5"/>
    <circle cx="480" cy="80" r="5.5"/>
  </g>

  <!-- Today marker (vertical) -->
  <g stroke="#2570F2" stroke-width="1.2" fill="none" stroke-dasharray="2 3" opacity="0.7">
    <line x1="240" y1="60" x2="240" y2="340"/>
  </g>
  <text x="244" y="74" font-family="'JetBrains Mono', ui-monospace, monospace" font-size="9" fill="#2570F2" letter-spacing="1">DAY 14 &#183; HABIT FORMED</text>

  <!-- Annotation (red ink, slight rotation) -->
  <g transform="translate(330, 110)">
    <text font-family="'JetBrains Mono', ui-monospace, monospace" font-size="10" fill="#C8262C" letter-spacing="1" transform="rotate(-3)">
      &#8599; 5 min/day, Duolingo-style.
    </text>
  </g>

  <!-- Bottom margin -->
  <g transform="translate(40, 372)" font-family="'JetBrains Mono', ui-monospace, monospace" font-size="9" fill="#8E9099" letter-spacing="2">
    <text>FRESHMILK &#183; LAB NOTEBOOK &#183; 04/04</text>
    <text x="560" text-anchor="end">* WORKING TITLE</text>
  </g>
</svg>
