<svg xmlns="http://www.w3.org/2000/svg" viewBox="0 0 640 400" width="640" height="400" role="img" aria-label="Storit — webtoon quiz community mockup">
  <defs>
    <filter id="storitGrain" x="0" y="0" width="100%" height="100%">
      <feTurbulence type="fractalNoise" baseFrequency="0.9" numOctaves="2" stitchTiles="stitch"/>
      <feColorMatrix values="0 0 0 0 0  0 0 0 0 0  0 0 0 0 0  0 0 0 0.04 0"/>
    </filter>
    <linearGradient id="phoneBg" x1="0%" y1="0%" x2="100%" y2="100%">
      <stop offset="0%" stop-color="#FFFFFF"/>
      <stop offset="100%" stop-color="#F4F2EB"/>
    </linearGradient>
  </defs>

  <rect width="640" height="400" fill="#F4F2EB"/>
  <rect width="640" height="400" filter="url(#storitGrain)"/>

  <!-- Phone frame -->
  <g transform="translate(48, 36)">
    <rect x="0" y="0" width="220" height="328" rx="28" fill="#0E0F12"/>
    <rect x="8" y="10" width="204" height="308" rx="22" fill="url(#phoneBg)"/>
    <rect x="78" y="18" width="64" height="8" rx="4" fill="#0E0F12" opacity="0.12"/>

    <!-- App header -->
    <text x="20" y="52" font-family="'Pretendard Variable',sans-serif" font-size="14" font-weight="700" fill="#0E0F12">Storit</text>
    <text x="20" y="70" font-family="'Pretendard Variable',sans-serif" font-size="10" fill="#5B6068">오늘의 웹툰 퀴즈</text>

    <!-- Webtoon panel strip -->
    <rect x="20" y="84" width="180" height="64" rx="8" fill="#FFFFFF" stroke="#0E0F12" stroke-width="1.5"/>
    <path d="M 28 140 L 58 118 L 88 140 Z" fill="#2570F2" opacity="0.85"/>
    <path d="M 78 140 L 128 108 L 188 140 Z" fill="#0E0F12" opacity="0.9"/>

    <!-- Quiz card -->
    <rect x="20" y="160" width="180" height="88" rx="12" fill="#2570F2"/>
    <text x="110" y="200" font-family="'Instrument Serif', serif" font-size="34" font-style="italic" fill="#FFFFFF" text-anchor="middle">Quiz</text>
    <text x="110" y="228" font-family="'Pretendard Variable',sans-serif" font-size="10" fill="#FFFFFF" text-anchor="middle" opacity="0.9">3번째 화 · 정답 맞히기</text>

    <!-- Reward row -->
    <rect x="20" y="260" width="86" height="44" rx="10" fill="#FFFFFF" stroke="#E5E7EB"/>
    <text x="63" y="278" font-family="'Pretendard Variable',sans-serif" font-size="9" fill="#5B6068" text-anchor="middle">리워드</text>
    <text x="63" y="294" font-family="'Pretendard Variable',sans-serif" font-size="12" font-weight="700" fill="#2570F2" text-anchor="middle">+120P</text>
    <rect x="114" y="260" width="86" height="44" rx="10" fill="#FFFFFF" stroke="#E5E7EB"/>
    <text x="157" y="278" font-family="'Pretendard Variable',sans-serif" font-size="9" fill="#5B6068" text-anchor="middle">랭킹</text>
    <text x="157" y="294" font-family="'Pretendard Variable',sans-serif" font-size="12" font-weight="700" fill="#0E0F12" text-anchor="middle">#12</text>
  </g>

  <!-- Product copy -->
  <g transform="translate(300, 88)">
    <text font-family="'Pretendard Variable',sans-serif" font-size="13" font-weight="600" fill="#2570F2" letter-spacing="0.04em">MAIN PRODUCT</text>
    <text font-family="'Pretendard Variable',sans-serif" font-size="42" font-weight="600" fill="#0E0F12" letter-spacing="-1.5">
      <tspan x="0" y="48">읽는 웹툰에서,</tspan>
      <tspan x="0" y="96">즐기는 웹툰으로.</tspan>
    </text>
    <text font-family="'Pretendard Variable',sans-serif" font-size="15" fill="#5B6068" line-height="1.6">
      <tspan x="0" y="138">퀴즈 · 리워드 · 팬덤 커뮤니티</tspan>
      <tspan x="0" y="162">2026 베타 준비 중</tspan>
    </text>

    <!-- Feature pills -->
    <g transform="translate(0, 188)">
      <rect x="0" y="0" width="58" height="28" rx="14" fill="#EAF3FF" stroke="#C5DCFF"/>
      <text x="29" y="18" font-family="'Pretendard Variable',sans-serif" font-size="11" font-weight="600" fill="#2570F2" text-anchor="middle">웹툰</text>
      <rect x="66" y="0" width="58" height="28" rx="14" fill="#FFFFFF" stroke="#E5E7EB"/>
      <text x="95" y="18" font-family="'Pretendard Variable',sans-serif" font-size="11" font-weight="600" fill="#5B6068" text-anchor="middle">퀴즈</text>
      <rect x="132" y="0" width="58" height="28" rx="14" fill="#FFFFFF" stroke="#E5E7EB"/>
      <text x="161" y="18" font-family="'Pretendard Variable',sans-serif" font-size="11" font-weight="600" fill="#5B6068" text-anchor="middle">팬덤</text>
    </g>
  </g>

  <!-- Brand mark -->
  <g transform="translate(300, 340)" font-family="'Pretendard Variable',sans-serif" font-size="11" fill="#8E9099">
    <text>FreshMilk · Storit</text>
  </g>
</svg>
