<svg xmlns="http://www.w3.org/2000/svg" viewBox="0 0 640 400" width="640" height="400" role="img" aria-label="tolli — typographic verse poster">
  <defs>
    <filter id="tolliGrain" x="0" y="0" width="100%" height="100%">
      <feTurbulence type="fractalNoise" baseFrequency="0.85" numOctaves="2" stitchTiles="stitch"/>
      <feColorMatrix values="0 0 0 0 0  0 0 0 0 0  0 0 0 0 0  0 0 0 0.05 0"/>
    </filter>
  </defs>

  <rect width="640" height="400" fill="#0E0F12"/>
  <rect width="640" height="400" filter="url(#tolliGrain)" opacity="0.8"/>

  <!-- Top meta -->
  <g font-family="'JetBrains Mono', ui-monospace, monospace" font-size="11" fill="#A3A8B4" letter-spacing="2">
    <text x="40" y="42">EXP/02 — TOLLI · MEM/DAY 23</text>
    <text x="600" y="42" text-anchor="end" fill="#2570F2">● BUILDING</text>
  </g>

  <!-- Center: typographic verse, mostly faded with one word highlighted -->
  <g transform="translate(40, 110)">
    <!-- Background ghost text (very low opacity) -->
    <text font-family="'Instrument Serif', serif" font-style="italic" font-size="72" fill="#FFFFFF" opacity="0.18">
      <tspan x="0" y="0">a verse</tspan>
      <tspan x="0" y="74">a day,</tspan>
    </text>

    <!-- Highlighted final word -->
    <text font-family="'Instrument Serif', serif" font-style="italic" font-size="92" fill="#FFFFFF" letter-spacing="-1">
      <tspan x="0" y="180">by heart.</tspan>
    </text>

    <!-- Korean translation below in mono small -->
    <text font-family="'Pretendard Variable',sans-serif" font-size="14" font-weight="300" fill="#FFFFFF" opacity="0.7">
      <tspan x="0" y="220">매일의 말씀, 손끝의 암송.</tspan>
    </text>
  </g>

  <!-- Right side: progress dots (memorization grid) -->
  <g transform="translate(440, 130)">
    <text font-family="'JetBrains Mono', ui-monospace, monospace" font-size="9" fill="#A3A8B4" letter-spacing="2" x="0" y="-10">
      MEMORIZED · 23/40
    </text>
    <!-- 8 cols x 5 rows of dots -->
    <g fill="#FFFFFF">
      <!-- Row 1 -->
      <circle cx="0"   cy="0"  r="4"/>
      <circle cx="20"  cy="0"  r="4"/>
      <circle cx="40"  cy="0"  r="4"/>
      <circle cx="60"  cy="0"  r="4"/>
      <circle cx="80"  cy="0"  r="4"/>
      <circle cx="100" cy="0"  r="4"/>
      <circle cx="120" cy="0"  r="4"/>
      <circle cx="140" cy="0"  r="4"/>
      <!-- Row 2 -->
      <circle cx="0"   cy="20" r="4"/>
      <circle cx="20"  cy="20" r="4"/>
      <circle cx="40"  cy="20" r="4"/>
      <circle cx="60"  cy="20" r="4"/>
      <circle cx="80"  cy="20" r="4"/>
      <circle cx="100" cy="20" r="4"/>
      <circle cx="120" cy="20" r="4"/>
      <circle cx="140" cy="20" r="4"/>
      <!-- Row 3 (partial) -->
      <circle cx="0"   cy="40" r="4"/>
      <circle cx="20"  cy="40" r="4"/>
      <circle cx="40"  cy="40" r="4"/>
      <circle cx="60"  cy="40" r="4"/>
      <circle cx="80"  cy="40" r="4"/>
      <circle cx="100" cy="40" r="4"/>
      <circle cx="120" cy="40" r="4"/>
    </g>
    <!-- Today's dot (highlighted, signal pink) -->
    <circle cx="140" cy="40" r="5" fill="#2570F2"/>
    <!-- Annotation arrow to today's dot -->
    <g stroke="#2570F2" stroke-width="1.2" fill="none">
      <path d="M 170 56 L 148 44" stroke-linecap="round"/>
      <path d="M 152 40 L 148 44 L 152 48" stroke-linecap="round"/>
    </g>
    <text x="172" y="64" font-family="'JetBrains Mono', ui-monospace, monospace" font-size="9" fill="#2570F2" letter-spacing="1">
      TODAY
    </text>
    <!-- Remaining dots (outline only) -->
    <g fill="none" stroke="#FFFFFF" stroke-width="1.2" opacity="0.35">
      <circle cx="0"   cy="60" r="4"/>
      <circle cx="20"  cy="60" r="4"/>
      <circle cx="40"  cy="60" r="4"/>
      <circle cx="60"  cy="60" r="4"/>
      <circle cx="80"  cy="60" r="4"/>
      <circle cx="100" cy="60" r="4"/>
      <circle cx="120" cy="60" r="4"/>
      <circle cx="140" cy="60" r="4"/>
      <circle cx="0"   cy="80" r="4"/>
      <circle cx="20"  cy="80" r="4"/>
      <circle cx="40"  cy="80" r="4"/>
      <circle cx="60"  cy="80" r="4"/>
      <circle cx="80"  cy="80" r="4"/>
      <circle cx="100" cy="80" r="4"/>
      <circle cx="120" cy="80" r="4"/>
      <circle cx="140" cy="80" r="4"/>
    </g>
  </g>

  <!-- Bottom margin -->
  <g transform="translate(40, 372)" font-family="'JetBrains Mono', ui-monospace, monospace" font-size="9" fill="#6A7184" letter-spacing="2">
    <text>FRESHMILK · LAB NOTEBOOK · 02/04</text>
    <text x="560" text-anchor="end">— TOLLI.</text>
  </g>
</svg>
